<svg width="1200" height="630" version="1.1" viewBox="0 0 1200 630" xmlns="http://www.w3.org/2000/svg" xmlns:xlink="http://www.w3.org/1999/xlink">
 <defs>
  <radialGradient id="radialGradient25902" cx="194.83" cy="1160.5" r="600" gradientTransform="matrix(.5408 .0090038 -.0087395 .52493 504.78 -295.91)" gradientUnits="userSpaceOnUse">
   <stop stop-color="#f9b543" offset="0"/>
   <stop stop-color="#ec9105" offset="1"/>
  </radialGradient>
  <filter id="filter37081" x="-.062455" y="-.027792" width="1.1249" height="1.0556" color-interpolation-filters="sRGB">
   <feFlood flood-color="rgb(0,0,0)" flood-opacity=".37647" result="flood"/>
   <feComposite in="flood" in2="SourceGraphic" operator="in" result="composite1"/>
   <feGaussianBlur in="composite1" result="blur" stdDeviation="4"/>
   <feOffset dx="0" dy="0" result="offset"/>
   <feComposite in="SourceGraphic" in2="offset" result="composite2"/>
  </filter>
  <filter id="filter37111" x="-.17598" y="-.1498" width="1.352" height="1.2996" color-interpolation-filters="sRGB">
   <feFlood flood-color="rgb(0,0,0)" flood-opacity=".37647" result="flood"/>
   <feComposite in="flood" in2="SourceGraphic" operator="in" result="composite1"/>
   <feGaussianBlur in="composite1" result="blur" stdDeviation="4"/>
   <feOffset dx="0" dy="0" result="offset"/>
   <feComposite in="SourceGraphic" in2="offset" result="composite2"/>
  </filter>
  <filter id="filter37123" x="-.13147" y="-.1538" width="1.2684" height="1.3076" color-interpolation-filters="sRGB">
   <feFlood flood-color="rgb(0,0,0)" flood-opacity=".37647" result="flood"/>
   <feComposite in="flood" in2="SourceGraphic" operator="in" result="composite1"/>
   <feGaussianBlur in="composite1" result="blur" stdDeviation="4"/>
   <feOffset dx="0" dy="0" result="offset"/>
   <feComposite in="SourceGraphic" in2="offset" result="composite2"/>
  </filter>
 </defs>
 <rect x="-1.3379e-6" y="-2.9687e-6" width="1200" height="630" fill="url(#radialGradient25902)" stroke-linecap="round" stroke-linejoin="round" stroke-width="11.177" style="paint-order:markers stroke fill"/>
 <g transform="matrix(.91792 0 0 .91792 50.185 25.854)">
  <g transform="matrix(7.6067 0 0 7.6067 -1196 -2249.5)" fill="#e8152e" fill-opacity=".21867" stroke-width=".17639">
   <path d="m221.79 352.67c0.3241 0.2003 0.095 1.2456-0.5554 2.534-0.61385 1.216-2.1502 2.8346-3.0458 3.2088-2.1772 0.90969-4.6656-0.64872-3.9128-2.4504 0.32785-0.78466 0.90887-1.1176 2.6876-1.54 1.3363-0.31737 3.2394-1.0812 3.8357-1.5395 0.35325-0.2715 0.75585-0.358 0.9907-0.21285z"/>
   <path d="m211.38 351.44c0.72761 0.2797 1.6848 0.51319 2.127 0.51886 0.44228 6e-3 0.94347 0.11219 1.1138 0.23671 0.29323 0.21441 0.29085 0.25026-0.045 0.6772-0.47525 0.60417-2.3692 1.4365-3.4604 1.5208-1.2299 0.095-2.3695-0.49515-2.7083-1.4025-0.31819-0.85206-0.14597-1.4798 0.49725-1.8124 0.69243-0.35806 0.92935-0.33305 2.4756 0.26138z"/>
   <path d="m262.29 348.88c0.70198-0.20118 1.6705-0.99151 1.9583-1.598 0.45581-0.96054 0.25671-1.9364-0.54498-2.671-0.55219-0.50605-0.74376-0.5811-1.2947-0.5072-0.35563 0.0477-1.1603 0.39957-1.7881 0.78192-0.62784 0.38236-1.9154 0.99375-2.8613 1.3586-1.8589 0.71711-2.0625 0.9695-1.3229 1.6398 0.6565 0.59502 2.0372 0.96659 3.8365 1.0324 0.92163 0.0337 1.8294 0.0173 2.0173-0.0366z"/>
   <path d="m250.42 359.27c-0.34655-0.58741-1.3258-1.294-2.9955-2.1614-0.80171-0.4165-1.7604-0.96073-2.1304-1.2094-0.80013-0.53773-2.5104-2.2027-2.555-2.4873-0.06-0.38322-1.3078-1.4823-1.6262-1.4325-0.84573 0.13248-1.021 1.6182-0.54732 4.6385 0.49003 3.1238 1.5424 5.0816 3.3989 6.3229 1.1537 0.77136 2.3233 1.0934 3.6563 1.0067 0.87961-0.0572 1.1621-0.15956 1.9376-0.70201 0.729-0.50994 0.94996-0.78671 1.1217-1.405 0.23211-0.83578 0.12216-1.9226-0.26003-2.5705z"/>
   <path d="m258.78 328.15c0.2132 0.0903 0.51086 0.40238 0.66146 0.69361 0.85605 1.6554-0.41428 3.6688-2.7191 4.3096-2.6264 0.73021-4.4321-0.0364-3.0773-1.3065 0.25086-0.23519 0.81603-0.96859 1.2559-1.6298 0.4399-0.66119 1.0879-1.3919 1.4401-1.6239 0.72766-0.47929 1.8653-0.68595 2.439-0.44307z"/>
   <path d="m213.37 312.46c0.44477 0.25913 0.65894 0.73994 1.0397 2.3342 0.18637 0.78032 0.58228 1.8442 0.87981 2.3642 0.43708 0.76394 0.49977 0.9951 0.32648 1.2039-0.31025 0.37383-0.70398 0.32265-1.9628-0.25512-1.3197-0.6057-2.184-1.3867-2.636-2.382-0.39342-0.86625-0.41815-1.5027-0.089-2.2905 0.42367-1.014 1.5812-1.476 2.4418-0.97461z"/>
   <path d="m210.51 323.63c0.30312 0.0506 0.76529 0.27836 1.027 0.50616 0.44308 0.38559 0.48226 0.51951 0.56773 1.9405 0.16506 2.7443 0.28346 3.6173 0.65028 4.7933 0.60925 1.9534-0.0512 2.0856-2.2307 0.44628-1.7447-1.3123-2.6054-2.5916-2.7601-4.1031-0.16474-1.6088 0.36002-2.707 1.6082-3.3656 0.39667-0.20933 0.76484-0.27972 1.1376-0.2175z"/>
   <path d="m244.37 314.95c1.2551 0.50049 1.6652 1.857 0.81751 2.7046-0.46575 0.46575-0.93231 0.54578-4.6098 0.79069-2.8923 0.19263-3.2122-9e-3 -2.0467-1.2866 1.5824-1.7353 4.376-2.792 5.839-2.2087z"/>
   <path d="m224.26 314.94c1.0762 0.48717 1.7323 1.1538 1.957 1.9883 0.10314 0.38304 0.20136 2.2521 0.21825 4.1535l0.0307 3.4571 0.52858 0.95654c1.0878 1.9685 3.3048 2.8367 4.7783 1.8712 0.6276-0.41122 1.0701-1.4442 1.2112-2.8277 0.15372-1.5069 0.6383-2.6848 1.1889-2.89 0.53933-0.20099 1.7456 0.16897 2.5491 0.78177 0.65132 0.49679 1.1211 1.3617 1.1181 2.0585-4e-3 0.87205-0.84284 2.1788-2.3539 3.6657-1.5456 1.5209-1.8325 2.0913-1.3132 2.6106 0.31341 0.31341 1.5731 0.25449 2.0989-0.0982 0.25217-0.16913 1.3237-1.1902 2.3812-2.2691 1.6789-1.7128 2.1129-2.0527 3.4221-2.6801 1.7694-0.84797 3.4123-1.1735 5.2775-1.0456 1.888 0.12941 3.1245 0.86365 4.0209 2.3876 0.36673 0.6235 0.43171 0.92232 0.3679 1.6919-0.19575 2.3604-2.0979 3.148-5.9838 2.4778-3.3893-0.58459-5.5076-0.30745-6.7731 0.8861-0.52888 0.4988-0.61355 0.69139-0.61355 1.3957 0 1.3414 0.3134 1.5226 2.6344 1.5226 1.0608 0 2.1522 0.0847 2.4254 0.18814 1.7157 0.65006 2.0792 2.7312 0.67053 3.8392-0.62119 0.48863-1.633 0.49863-2.9962 0.0296-1.1157-0.38387-2.3839-0.4582-2.9202-0.17116-0.52307 0.27994-0.92336 1.1985-0.81452 1.8692 0.0522 0.32179 0.34055 0.94207 0.64075 1.3784 0.44094 0.64089 0.7228 0.84947 1.4671 1.0857 1.2865 0.40827 3.9958 0.5072 7.0067 0.25587 2.2155-0.18494 2.7346-0.17633 3.8806 0.0644 1.6182 0.33988 2.592 0.9743 3.1309 2.0397 0.9832 1.9439 0.0122 4.3051-2.1952 5.338-2.9109 1.3622-5.9428 0.55785-10.272-2.7249-3.8265-2.9018-4.1786-3.0735-5.437-2.6509-1.6328 0.54839-1.875 1.8417-0.82606 4.411 1.865 4.568 2.11 5.7267 1.5895 7.5172-0.34264 1.1786-1.3608 2.402-2.475 2.9738-1.4094 0.72321-3.6926 0.33881-4.9027-0.8254-0.75525-0.72662-0.66557-1.5854 0.46659-4.4678 0.5234-1.3326 1.0389-2.7403 1.1455-3.1284 0.40921-1.4891 0.14322-2.7776-0.74178-3.5934-0.68202-0.6287-1.1663-0.40265-2.4174 1.1284-1.1936 1.4607-2.072 2.0241-3.1561 2.0241-1.2822 0-2.1331-0.71831-2.1313-1.7992 2e-3 -0.95707 1.3773-2.2524 3.2019-3.0148 0.8455-0.35328 1.8531-1.3919 2.0002-2.0619 0.14952-0.68075-0.23929-1.3348-0.86452-1.4544-0.675-0.12903-1.6338 0.39577-3.1735 1.737-4.2522 3.7042-6.9498 5.1821-9.459 5.1821-2.0088 0-3.6648-1.1938-4.4063-3.1765-0.68684-1.8366-0.29796-3.1753 1.1637-4.006 1.0412-0.59178 1.9367-0.64818 4.8226-0.30373 2.2491 0.26844 2.8175 0.28219 3.8723 0.0937 1.599-0.28575 3.3943-1.1574 4.5705-2.2191 1.1619-1.0487 1.6228-1.9195 1.6228-3.0656 0-0.7642-0.0698-0.93207-0.55918-1.3438l-0.55918-0.47052-3.2908 0.058c-3.6119 0.0636-4.0401-0.0257-4.5136-0.94128-0.57018-1.1026 0.0124-2.8952 1.1102-3.4162 0.84244-0.39977 2.4714-0.36459 4.0195 0.0868 0.67879 0.19791 1.7287 0.35984 2.3331 0.35984 0.97169 0 1.1317-0.05 1.3822-0.43233 0.56276-0.85888-0.0962-1.7291-2.7446-3.6243-3.6581-2.6178-5.0682-4.618-5.2442-7.4385-0.16296-2.6121 0.70408-4.3902 2.6123-5.3571 1.128-0.57161 3.0375-0.60187 4.2194-0.0669z"/>
   <path d="m235.37 310.74c1.3284 0.90673 1.5439 2.4554 0.58663 4.2143-0.26771 0.49186-1.4419 1.9015-2.6093 3.1325s-2.3638 2.5451-2.6585 2.9202c-0.45421 0.57798-0.60676 0.66426-0.99999 0.56557-0.36028-0.0904-0.52497-0.30381-0.73669-0.95452-0.56851-1.7473-0.33118-5.4499 0.44712-6.9755 0.47039-0.92204 1.6477-2.1846 2.6097-2.7987 1.0315-0.65847 2.4827-0.70325 3.361-0.10373z"/>
  </g>
  <g transform="matrix(1.9974 1.0308 -1.5458 2.9955 980.66 -608.39)" filter="url(#filter37123)">
   <g transform="matrix(.97084 0 0 1 -6.2041 20.171)">
    <ellipse cx="18.979" cy="282.07" rx="37.5" ry="32.5" fill="#0b4a1d" stroke-width="2.7828"/>
    <ellipse cx="18.979" cy="282.07" rx="37.5" ry="24.375" fill="#99ca60" stroke-width="2.4099"/>
    <ellipse cx="18.979" cy="282.07" rx="37.5" ry="16.25" fill="#0b4a1d" stroke-width="1.9677"/>
    <ellipse cx="18.979" cy="282.07" rx="37.5" ry="8.125" fill="#93cc59" stroke-width="1.3914"/>
   </g>
   <ellipse cx="21.333" cy="302.24" rx="27.5" ry="32.5" fill="#93cc59" stroke="#0b4a1d" stroke-width=".79375"/>
   <ellipse cx="21.333" cy="302.24" rx="24.098" ry="28.48" fill="#fffefb" stroke-width="5.0217"/>
   <ellipse cx="21.333" cy="302.24" rx="21.452" ry="25.353" fill="#e8152e" stroke-width="4.4703"/>
  </g>
  <g transform="matrix(1.5317 0 0 1.5317 376.05 -1516.3)" filter="url(#filter37081)">
   <path d="m69.352 1368.3c29.653-78.776 58.02-158.13 91.566-235.36 18.627-37.815 41.808-73.338 62.144-110.07-25.216 28.925-50.667 59.094-63.806 95.734-28.017 66.464-55.533 133.36-75.569 202.74-4.7972 15.646-9.5635 31.301-14.335 46.955z" fill="#fff"/>
   <path d="m69.352 1368.3s31.063-70.905 33.764-78.333 49.971-112.1 54.023-123.58c4.0517-11.48 31.063-62.802 35.79-72.256 4.727-9.4541 30.133-71.257 30.133-71.257s-55.794 92.867-59.17 99.619c-3.3764 6.7529-63.477 155.99-65.503 164.77-2.0259 8.7787-29.037 81.034-29.037 81.034z" fill="#ececec"/>
  </g>
  <g transform="matrix(2.0221 2.6903 -2.6903 2.0221 1356.8 -245.04)" filter="url(#filter37111)">
   <path d="m6.2315 237.34a27.5 32.5 0 0 0-21.69 31.766 27.5 32.5 0 0 0 24.602 32.319 37.5 32.5 0 0 0 29.949-31.834 37.5 32.5 0 0 0-32.861-32.251z" fill="#0b4a1d" stroke-width="2.7828"/>
   <path d="m1.5264 245.22a37.5 24.375 0 0 0-8.7344 0.68109 27.5 32.5 0 0 0-8.2501 23.209 27.5 32.5 0 0 0 9.2661 24.329 37.5 24.375 0 0 0 7.7845 0.5307 37.5 24.375 0 0 0 37.5-24.375 37.5 24.375 0 0 0-37.5-24.375 37.5 24.375 0 0 0-0.06615 0z" fill="#99ca60" stroke-width="2.4099"/>
   <path d="m1.5238 253.34a37.5 16.25 0 0 0-14.065 1.1984 27.5 32.5 0 0 0-2.9166 14.567 27.5 32.5 0 0 0 3.3827 15.617 37.5 16.25 0 0 0 13.668 1.1183 37.5 16.25 0 0 0 37.5-16.25 37.5 16.25 0 0 0-37.5-16.25 37.5 16.25 0 0 0-0.06873 0z" fill="#0b4a1d" stroke-width="1.9677"/>
   <path d="m1.5419 261.47a37.5 8.125 0 0 0-16.388 0.82269 27.5 32.5 0 0 0-0.61185 6.8177 27.5 32.5 0 0 0 0.80512 7.8078 37.5 8.125 0 0 0 16.246 0.80201 37.5 8.125 0 0 0 37.5-8.1251 37.5 8.125 0 0 0-37.5-8.1251 37.5 8.125 0 0 0-0.050641 0z" fill="#93cc59" stroke-width="1.3914"/>
  </g>
 </g>
</svg>
